# xmcd
#
# Track frame offsets: 
#        150
#        19644
#        35760
#        59733
#        77966
#        100003
#        120918
#        137951
#        152094
#        167012
#        183065
#
# Disc length: 3047 seconds
#
# Revision: 0
# Processed by: cddbd v1.5.2PL0 Copyright (c) Steve Scherf et al.
# Submitted via: ExactAudioCopy v0.95b3
#
DISCID=890be50b
DTITLE=Hogg Maulies - Here To Stay
DYEAR=2006
DGENRE=Country
TTITLE0=Here To Stay
TTITLE1=Goodnight
TTITLE2=Fall Back
TTITLE3=Feel Me Anymore
TTITLE4=Oh My Sweet Carolina
TTITLE5=Long Time Gone
TTITLE6=Cold Hard Winter Run
TTITLE7=Let´s  Roll
TTITLE8=Right Where You Belong
TTITLE9=If The Red River Floods
TTITLE10=Life
EXTD=
EXTT0=
EXTT1=
EXTT2=
EXTT3=
EXTT4=
EXTT5=
EXTT6=
EXTT7=
EXTT8=
EXTT9=
EXTT10=
PLAYORDER=
